<?xml version="1.0" encoding="utf-8"?>
<!-- Generator: Adobe Illustrator 21.0.0, SVG Export Plug-In . SVG Version: 6.00 Build 0)  -->
<svg version="1.1" id="Layer_1" xmlns="http://www.w3.org/2000/svg" x="0px" y="0px"
     viewBox="0 0 200 36" style="enable-background:new 0 0 200 36;" xml:space="preserve">
<style type="text/css">
	.st0{fill:url(#SVGID_1_);}
	.st1{fill:url(#SVGID_2_);}
	.st2{fill:url(#SVGID_3_);}
	.st3{fill:url(#SVGID_4_);}
	.st4{fill:url(#SVGID_5_);}
	.st5{fill:url(#SVGID_6_);}
	.st6{fill:url(#SVGID_7_);}
	.st7{fill:url(#SVGID_8_);}
	.st8{fill:url(#SVGID_9_);}
	.st9{fill:url(#SVGID_10_);}
	.st10{fill:url(#SVGID_11_);}
	.st11{fill:url(#SVGID_12_);}
	.st12{fill:url(#SVGID_13_);}
	.st13{fill:url(#SVGID_14_);}
	.st14{fill:url(#SVGID_15_);}
	.st15{fill:url(#SVGID_16_);}
	.st16{fill:#334A7F;}
	.st17{opacity:0.67;fill:url(#SVGID_17_);enable-background:new    ;}
	.st18{opacity:0.67;fill:url(#SVGID_18_);enable-background:new    ;}
	.st19{opacity:0.67;fill:url(#SVGID_19_);enable-background:new    ;}
	.st20{fill:#FFFFFF;}
</style>
<g>
	<g>
		
			<linearGradient id="SVGID_1_" gradientUnits="userSpaceOnUse" x1="45.55" y1="-1036.6544" x2="45.55" y2="-1016.5487" gradientTransform="matrix(1 0 0 -1 0 -1008)">
			<stop  offset="0" style="stop-color:#2F4170"/>
			<stop  offset="0.1093" style="stop-color:#384F81"/>
			<stop  offset="0.2997" style="stop-color:#446399"/>
			<stop  offset="0.5024" style="stop-color:#4C71AA"/>
			<stop  offset="0.724" style="stop-color:#5179B4"/>
			<stop  offset="1" style="stop-color:#537CB7"/>
		</linearGradient>
		<path class="st0" d="M39.7,25.9V7.5h3.5v8.3c0.1-0.5,0.5-0.9,0.8-1.3c0.5-0.3,0.8-0.6,1.3-0.7c0.5-0.1,0.8-0.2,1.3-0.2
			c1.6,0,2.7,0.5,3.5,1.5s1.3,2.4,1.3,4.2v6.5h-3.5v-6.3c0-0.7-0.2-1.3-0.7-1.7c-0.5-0.5-0.9-0.7-1.5-0.7c-0.7,0-1.3,0.2-1.7,0.6
			c-0.5,0.3-0.7,1-0.7,1.8v6.3h-3.6V25.9z"/>
		
			<linearGradient id="SVGID_2_" gradientUnits="userSpaceOnUse" x1="59.95" y1="-1036.6545" x2="59.95" y2="-1016.5486" gradientTransform="matrix(1 0 0 -1 0 -1008)">
			<stop  offset="0" style="stop-color:#2F4170"/>
			<stop  offset="0.1093" style="stop-color:#384F81"/>
			<stop  offset="0.2997" style="stop-color:#446399"/>
			<stop  offset="0.5024" style="stop-color:#4C71AA"/>
			<stop  offset="0.724" style="stop-color:#5179B4"/>
			<stop  offset="1" style="stop-color:#537CB7"/>
		</linearGradient>
		<path class="st1" d="M54.6,23.1c-0.6-0.9-0.8-2.1-0.8-3.3s0.2-2.3,0.8-3.2c0.6-0.9,1.3-1.7,2.3-2.2c0.9-0.5,1.9-0.8,3.1-0.8
			c0.8,0,1.6,0.1,2.4,0.5c0.8,0.3,1.4,0.7,1.9,1.3c0.6,0.6,1,1.3,1.3,1.9c0.3,0.8,0.5,1.6,0.5,2.5c0,0.3,0,0.7,0,1.1h-8.8
			c0.1,0.7,0.5,1.1,1,1.5c0.6,0.3,1.3,0.6,1.9,0.6c0.6,0,1-0.1,1.5-0.3c0.5-0.2,0.8-0.5,1.1-0.8l2.6,1.7c-0.6,0.8-1.4,1.5-2.3,1.8
			c-1,0.3-2.1,0.6-3.2,0.6c-1.1,0-2.2-0.2-3.1-0.8C55.9,24.8,55.1,24.2,54.6,23.1z M57.3,18.9h5.1c-0.1-0.7-0.3-1.1-0.9-1.5
			c-0.5-0.3-1-0.5-1.6-0.5s-1.1,0.1-1.7,0.5C57.8,17.8,57.5,18.2,57.3,18.9z"/>
		
			<linearGradient id="SVGID_3_" gradientUnits="userSpaceOnUse" x1="70.25" y1="-1036.6544" x2="70.25" y2="-1016.5487" gradientTransform="matrix(1 0 0 -1 0 -1008)">
			<stop  offset="0" style="stop-color:#2F4170"/>
			<stop  offset="0.1093" style="stop-color:#384F81"/>
			<stop  offset="0.2997" style="stop-color:#446399"/>
			<stop  offset="0.5024" style="stop-color:#4C71AA"/>
			<stop  offset="0.724" style="stop-color:#5179B4"/>
			<stop  offset="1" style="stop-color:#537CB7"/>
		</linearGradient>
		<path class="st2" d="M68.5,25.9V7.5H72v18.4H68.5z"/>
		
			<linearGradient id="SVGID_4_" gradientUnits="userSpaceOnUse" x1="81.8" y1="-1036.6545" x2="81.8" y2="-1016.5486" gradientTransform="matrix(1 0 0 -1 0 -1008)">
			<stop  offset="0" style="stop-color:#2F4170"/>
			<stop  offset="0.1093" style="stop-color:#384F81"/>
			<stop  offset="0.2997" style="stop-color:#446399"/>
			<stop  offset="0.5024" style="stop-color:#4C71AA"/>
			<stop  offset="0.724" style="stop-color:#5179B4"/>
			<stop  offset="1" style="stop-color:#537CB7"/>
		</linearGradient>
		<path class="st3" d="M75.4,31.7V14h3.5v1.5c0.3-0.6,0.8-0.9,1.4-1.3c0.7-0.3,1.4-0.5,2.1-0.5c0.8,0,1.5,0.1,2.2,0.5
			c0.7,0.3,1.3,0.7,1.8,1.3c0.6,0.6,0.9,1.1,1.3,1.9c0.3,0.8,0.5,1.6,0.5,2.5s-0.1,1.8-0.5,2.6c-0.3,0.8-0.7,1.5-1.3,1.9
			c-0.6,0.6-1.1,0.9-1.8,1.3c-0.7,0.3-1.5,0.5-2.2,0.5c-0.8,0-1.5-0.1-2.1-0.5c-0.7-0.3-1.1-0.7-1.4-1.3v7.3H75.4L75.4,31.7z
			 M78.9,19.9c0,0.8,0.2,1.5,0.8,2.1c0.6,0.5,1.1,0.8,1.9,0.8s1.4-0.2,1.9-0.8c0.6-0.6,0.8-1.1,0.8-2.1c0-0.8-0.2-1.6-0.8-2.1
			c-0.6-0.6-1.1-0.8-1.9-0.8s-1.4,0.2-1.9,0.8C79.3,18.4,78.9,19.1,78.9,19.9z"/>
		
			<linearGradient id="SVGID_5_" gradientUnits="userSpaceOnUse" x1="94.1" y1="-1036.6545" x2="94.1" y2="-1016.5486" gradientTransform="matrix(1 0 0 -1 0 -1008)">
			<stop  offset="0" style="stop-color:#2F4170"/>
			<stop  offset="0.1093" style="stop-color:#384F81"/>
			<stop  offset="0.2997" style="stop-color:#446399"/>
			<stop  offset="0.5024" style="stop-color:#4C71AA"/>
			<stop  offset="0.724" style="stop-color:#5179B4"/>
			<stop  offset="1" style="stop-color:#537CB7"/>
		</linearGradient>
		<path class="st4" d="M89.6,16.7v-2.9h2.3V13c0-1.8,0.5-3.2,1.4-4.2s2.3-1.5,4-1.5h1.3v3.3h-1.3c-0.6,0-1,0.2-1.4,0.6
			c-0.3,0.3-0.5,0.9-0.5,1.7v0.8h2.4v3h-2.4v9.1h-3.5v-9.1H89.6z"/>
		
			<linearGradient id="SVGID_6_" gradientUnits="userSpaceOnUse" x1="105.6" y1="-1036.6545" x2="105.6" y2="-1016.5486" gradientTransform="matrix(1 0 0 -1 0 -1008)">
			<stop  offset="0" style="stop-color:#2F4170"/>
			<stop  offset="0.1093" style="stop-color:#384F81"/>
			<stop  offset="0.2997" style="stop-color:#446399"/>
			<stop  offset="0.5024" style="stop-color:#4C71AA"/>
			<stop  offset="0.724" style="stop-color:#5179B4"/>
			<stop  offset="1" style="stop-color:#537CB7"/>
		</linearGradient>
		<path class="st5" d="M99.9,21.1V14h3.5v6.4c0,0.5,0.1,0.8,0.2,1.1c0.1,0.3,0.3,0.6,0.6,0.7c0.2,0.1,0.5,0.2,0.7,0.3
			c0.2,0.1,0.5,0.1,0.7,0.1c0.6,0,1.1-0.2,1.6-0.6c0.5-0.3,0.6-1,0.6-1.8v-6.4h3.5v12h-3.5v-1.6c-0.3,0.6-0.8,1-1.4,1.4
			s-1.1,0.5-1.7,0.5c-1.4,0-2.5-0.5-3.4-1.3C100.3,23.9,99.9,22.7,99.9,21.1z"/>
		
			<linearGradient id="SVGID_7_" gradientUnits="userSpaceOnUse" x1="116.25" y1="-1036.6544" x2="116.25" y2="-1016.5487" gradientTransform="matrix(1 0 0 -1 0 -1008)">
			<stop  offset="0" style="stop-color:#2F4170"/>
			<stop  offset="0.1093" style="stop-color:#384F81"/>
			<stop  offset="0.2997" style="stop-color:#446399"/>
			<stop  offset="0.5024" style="stop-color:#4C71AA"/>
			<stop  offset="0.724" style="stop-color:#5179B4"/>
			<stop  offset="1" style="stop-color:#537CB7"/>
		</linearGradient>
		<path class="st6" d="M114.5,25.9V7.5h3.5v18.4H114.5z"/>
		
			<linearGradient id="SVGID_8_" gradientUnits="userSpaceOnUse" x1="123" y1="-1036.6545" x2="123" y2="-1016.5485" gradientTransform="matrix(1 0 0 -1 0 -1008)">
			<stop  offset="0" style="stop-color:#2F4170"/>
			<stop  offset="0.1093" style="stop-color:#384F81"/>
			<stop  offset="0.2997" style="stop-color:#446399"/>
			<stop  offset="0.5024" style="stop-color:#4C71AA"/>
			<stop  offset="0.724" style="stop-color:#5179B4"/>
			<stop  offset="1" style="stop-color:#537CB7"/>
		</linearGradient>
		<path class="st7" d="M121.9,25.6c-0.3-0.3-0.5-0.7-0.5-1.1s0.1-0.8,0.5-1.1c0.3-0.3,0.7-0.5,1.1-0.5c0.5,0,0.9,0.1,1.1,0.5
			c0.3,0.3,0.5,0.7,0.5,1.1s-0.1,0.8-0.5,1.1c-0.3,0.3-0.7,0.5-1.3,0.5C122.6,26.1,122.3,26,121.9,25.6z"/>
		
			<linearGradient id="SVGID_9_" gradientUnits="userSpaceOnUse" x1="130.75" y1="-1036.6545" x2="130.75" y2="-1016.5486" gradientTransform="matrix(1 0 0 -1 0 -1008)">
			<stop  offset="0" style="stop-color:#2F4170"/>
			<stop  offset="0.1093" style="stop-color:#384F81"/>
			<stop  offset="0.2997" style="stop-color:#446399"/>
			<stop  offset="0.5024" style="stop-color:#4C71AA"/>
			<stop  offset="0.724" style="stop-color:#5179B4"/>
			<stop  offset="1" style="stop-color:#537CB7"/>
		</linearGradient>
		<path class="st8" d="M126.7,15.9V14h2.3v-1.3c0-1.6,0.3-3,1.1-3.9s1.9-1.4,3.4-1.4h1.3v2.2h-1.4c-0.5,0-0.8,0.1-1.1,0.2
			c-0.3,0.1-0.6,0.5-0.7,0.7c-0.1,0.3-0.2,0.6-0.3,0.9c0,0.3-0.1,0.7-0.1,1.1v1.3h2.7v1.9h-2.7v10.1h-2.3v-9.9H126.7z"/>
		
			<linearGradient id="SVGID_10_" gradientUnits="userSpaceOnUse" x1="142.05" y1="-1036.6545" x2="142.05" y2="-1016.5486" gradientTransform="matrix(1 0 0 -1 0 -1008)">
			<stop  offset="0" style="stop-color:#2F4170"/>
			<stop  offset="0.1093" style="stop-color:#384F81"/>
			<stop  offset="0.2997" style="stop-color:#446399"/>
			<stop  offset="0.5024" style="stop-color:#4C71AA"/>
			<stop  offset="0.724" style="stop-color:#5179B4"/>
			<stop  offset="1" style="stop-color:#537CB7"/>
		</linearGradient>
		<path class="st9" d="M135.8,19.9c0-1.3,0.2-2.3,0.8-3.3c0.6-0.9,1.3-1.7,2.2-2.2s1.9-0.8,3-0.8c0.9,0,1.7,0.2,2.5,0.6
			s1.4,0.9,1.7,1.5v-1.8h2.3v12H146V24c-0.3,0.7-0.9,1.1-1.7,1.5c-0.8,0.3-1.6,0.6-2.4,0.6c-1.7,0-3.1-0.6-4.3-1.7
			C136.5,23.2,135.8,21.8,135.8,19.9z M138.2,19.9c0,1.1,0.3,2.1,1.1,2.9s1.7,1.1,2.7,1.1c1.1,0,2.1-0.3,2.9-1s1.1-1.7,1.1-2.9
			c0-0.8-0.2-1.5-0.6-2.2c-0.5-0.6-0.9-1-1.5-1.4c-0.6-0.3-1.3-0.5-1.8-0.5c-1.1,0-2.1,0.3-2.7,1C138.5,17.8,138.2,18.7,138.2,19.9z
			"/>
		
			<linearGradient id="SVGID_11_" gradientUnits="userSpaceOnUse" x1="161.45" y1="-1036.6545" x2="161.45" y2="-1016.5486" gradientTransform="matrix(1 0 0 -1 0 -1008)">
			<stop  offset="0" style="stop-color:#2F4170"/>
			<stop  offset="0.1093" style="stop-color:#384F81"/>
			<stop  offset="0.2997" style="stop-color:#446399"/>
			<stop  offset="0.5024" style="stop-color:#4C71AA"/>
			<stop  offset="0.724" style="stop-color:#5179B4"/>
			<stop  offset="1" style="stop-color:#537CB7"/>
		</linearGradient>
		<path class="st10" d="M152.2,25.9V14h2.3v1.8c0.3-0.6,0.8-1,1.4-1.4c0.7-0.3,1.3-0.6,1.8-0.6s0.9,0,1.3,0.1c1.5,0.2,2.5,1,3.1,2.3
			c0.8-1.6,2.2-2.5,4.1-2.5c1.5,0,2.6,0.5,3.4,1.4c0.8,0.9,1.1,2.2,1.1,3.9v6.9h-2.3v-6.7c0-1-0.2-1.7-0.7-2.3
			c-0.5-0.6-1.1-0.8-2.1-0.8c-0.9,0-1.7,0.3-2.3,0.9c-0.6,0.7-0.9,1.5-0.9,2.5v6.4h-2.3v-6.7c0-1-0.2-1.7-0.7-2.3
			c-0.5-0.6-1.1-0.8-1.8-0.8c-0.9,0-1.7,0.3-2.4,0.9s-0.9,1.5-0.9,2.6v6.3C154.3,25.9,152.2,25.9,152.2,25.9z"/>
		
			<linearGradient id="SVGID_12_" gradientUnits="userSpaceOnUse" x1="175.9" y1="-1036.6545" x2="175.9" y2="-1016.5485" gradientTransform="matrix(1 0 0 -1 0 -1008)">
			<stop  offset="0" style="stop-color:#2F4170"/>
			<stop  offset="0.1093" style="stop-color:#384F81"/>
			<stop  offset="0.2997" style="stop-color:#446399"/>
			<stop  offset="0.5024" style="stop-color:#4C71AA"/>
			<stop  offset="0.724" style="stop-color:#5179B4"/>
			<stop  offset="1" style="stop-color:#537CB7"/>
		</linearGradient>
		<path class="st11" d="M174.8,10.7c-0.3-0.3-0.5-0.7-0.5-1c0-0.5,0.1-0.8,0.5-1c0.3-0.3,0.7-0.5,1.1-0.5s0.8,0.1,1.1,0.5
			c0.3,0.3,0.5,0.7,0.5,1c0,0.5-0.1,0.8-0.5,1c-0.3,0.3-0.7,0.5-1.1,0.5C175.5,11,175.1,10.9,174.8,10.7z M174.8,25.9V14h2.3v11.9
			H174.8z"/>
		
			<linearGradient id="SVGID_13_" gradientUnits="userSpaceOnUse" x1="182.05" y1="-1036.6544" x2="182.05" y2="-1016.5487" gradientTransform="matrix(1 0 0 -1 0 -1008)">
			<stop  offset="0" style="stop-color:#2F4170"/>
			<stop  offset="0.1093" style="stop-color:#384F81"/>
			<stop  offset="0.2997" style="stop-color:#446399"/>
			<stop  offset="0.5024" style="stop-color:#4C71AA"/>
			<stop  offset="0.724" style="stop-color:#5179B4"/>
			<stop  offset="1" style="stop-color:#537CB7"/>
		</linearGradient>
		<path class="st12" d="M180.9,25.9V7.5h2.3v18.4H180.9z"/>
		
			<linearGradient id="SVGID_14_" gradientUnits="userSpaceOnUse" x1="191.6" y1="-1036.6544" x2="191.6" y2="-1016.5486" gradientTransform="matrix(1 0 0 -1 0 -1008)">
			<stop  offset="0" style="stop-color:#2F4170"/>
			<stop  offset="0.1093" style="stop-color:#384F81"/>
			<stop  offset="0.2997" style="stop-color:#446399"/>
			<stop  offset="0.5024" style="stop-color:#4C71AA"/>
			<stop  offset="0.724" style="stop-color:#5179B4"/>
			<stop  offset="1" style="stop-color:#537CB7"/>
		</linearGradient>
		<path class="st13" d="M185.6,14h2.5l3.5,8.7l3.5-8.7h2.5l-7.4,17.7h-2.4l2.5-6.2L185.6,14z"/>
	</g>
	<g>
		<g>
			
				<linearGradient id="SVGID_15_" gradientUnits="userSpaceOnUse" x1="33.3299" y1="31.5537" x2="14.0557" y2="16.1343" gradientTransform="matrix(1 0 0 1 0 -1.8898)">
				<stop  offset="0" style="stop-color:#2F4170"/>
				<stop  offset="0.1093" style="stop-color:#384F81"/>
				<stop  offset="0.2997" style="stop-color:#446399"/>
				<stop  offset="0.5024" style="stop-color:#4C71AA"/>
				<stop  offset="0.724" style="stop-color:#5179B4"/>
				<stop  offset="1" style="stop-color:#537CB7"/>
			</linearGradient>
			<path class="st14" d="M33,34.5H5.7c-1.4,0-2.5-1.2-2.5-2.5V4.8c0-1.4,1.2-2.5,2.5-2.5h27.1c1.4,0,2.5,1.2,2.5,2.5v27.1
				C35.5,33.3,34.4,34.5,33,34.5z"/>
			
				<linearGradient id="SVGID_16_" gradientUnits="userSpaceOnUse" x1="32.6734" y1="30.9085" x2="13.1745" y2="15.3094" gradientTransform="matrix(1 0 0 1 0 -1.8898)">
				<stop  offset="0" style="stop-color:#2F4170"/>
				<stop  offset="0.1093" style="stop-color:#384F81"/>
				<stop  offset="0.2997" style="stop-color:#446399"/>
				<stop  offset="0.5024" style="stop-color:#4C71AA"/>
				<stop  offset="0.724" style="stop-color:#5179B4"/>
				<stop  offset="1" style="stop-color:#537CB7"/>
			</linearGradient>
			<path class="st15" d="M32.8,33.8H4.2c-1.1,0-2-0.8-2-2V3.4c0-1.1,0.8-2,2-2h28.4c1.1,0,2,0.8,2,2v28.4
				C34.7,32.9,33.8,33.8,32.8,33.8z"/>
			<path class="st16" d="M34.6,2.8c0,0.2,0.1,0.4,0.1,0.6v28.4c0,1.1-0.8,2-2,2H4.2c-0.1,0-0.2,0-0.3,0c0.4,0.4,1.1,0.7,1.8,0.7
				h27.1c1.4,0,2.5-1.2,2.5-2.5V4.8C35.5,4,35.1,3.2,34.6,2.8z"/>
			
				<linearGradient id="SVGID_17_" gradientUnits="userSpaceOnUse" x1="7.4622" y1="3.4696" x2="13.3343" y2="11.8044" gradientTransform="matrix(1 0 0 1 0 -1.8898)">
				<stop  offset="0" style="stop-color:#FFFFFF;stop-opacity:0.6"/>
				<stop  offset="1" style="stop-color:#001C24;stop-opacity:0"/>
			</linearGradient>
			<path class="st17" d="M33.1,2.5H5.2c-1.1,0-2,0.8-2,2V31C7.1,14.6,15.7,2.5,33.1,2.5z"/>
			
				<linearGradient id="SVGID_18_" gradientUnits="userSpaceOnUse" x1="-1600.1851" y1="857.8861" x2="-1594.313" y2="866.2209" gradientTransform="matrix(-1 0 0 -1 -1569.889 892.6393)">
				<stop  offset="0" style="stop-color:#FFFFFF;stop-opacity:0.6"/>
				<stop  offset="1" style="stop-color:#001C24;stop-opacity:0"/>
			</linearGradient>
			<path class="st18" d="M32.2,33.3H4.8c-2,0.3,2.2,0.5,0.1,0.5h27.8c1.1,0,2-0.8,2-2V5.3c-0.1,0.6-0.3,1.3-0.5,1.9v24.1
				C34.1,32.4,33.3,33.3,32.2,33.3z"/>
			
				<linearGradient id="SVGID_19_" gradientUnits="userSpaceOnUse" x1="20.1" y1="3.5881" x2="20.1" y2="4.095" gradientTransform="matrix(1 0 0 1 0 -1.8898)">
				<stop  offset="0" style="stop-color:#FFFFFF;stop-opacity:0.6"/>
				<stop  offset="1" style="stop-color:#001C24;stop-opacity:0"/>
			</linearGradient>
			<path class="st19" d="M33.8,4.4v27.5c0.3,2,0.5-1.7,0.5,0.4V3.8c0-1.1-0.8-2-2-2H5.9C6.6,2,7.2,2.2,7.8,2.4h24.1
				C33,2.4,33.8,3.2,33.8,4.4z"/>
		</g>
		<g>
			<polygon class="st20" points="11.3,7.3 10.8,7.8 10.8,7.8 11.4,7.5 			"/>
			<path class="st20" d="M29,13.1c-0.2-0.5-0.6-0.9-1.1-1.1c-1.5-0.7-4.6-0.1-6.4,0.3c-1.5,0.3-6,1.9-6.6,2.2c0.1-0.3,1-4,1.1-5.5
				c0-0.7,0.3-4.5-2.7-4.6c-1.6-0.1-2.4,1-2.4,1c-0.1,0.1-3.3,4-3.5,4.2c3-3.6,4.8-5.1,6.5-4.1c2.3,1.4,0.4,7.1,0.3,7.8
				C13.6,16.1,10.8,27,9.6,30c0.2-0.3,2.2-5.4,2.4-6.1c0.1-0.3,2.1-6.5,2.7-8.7c0.8-0.3,5.5-1.8,7-2.1c3.7-0.8,5.8-0.6,6.3,0.3
				c0.8,1.4-0.4,4.1-0.5,4.4c-2.1,5.7-1.2,9-1.1,9.8c0.3,1.2,1.1,2.3,1.1,2.3c-0.1-0.2-2.5-2.9,0.9-11.8
				C29.5,15.4,29.5,14.3,29,13.1z"/>
		</g>
	</g>
</g>
</svg>
