<?xml version="1.0" encoding="utf-8"?>
<!-- Generator: Adobe Illustrator 22.1.0, SVG Export Plug-In . SVG Version: 6.00 Build 0)  -->
<svg version="1.1" id="Layer_1" xmlns="http://www.w3.org/2000/svg" xmlns:xlink="http://www.w3.org/1999/xlink" x="0px" y="0px"
	 viewBox="0 0 195.7 36" style="enable-background:new 0 0 195.7 36;" xml:space="preserve">
<style type="text/css">
	.st0{fill:#FFFFFF;stroke:#D1D3D4;stroke-miterlimit:10;}
	.st1{fill:#FFFFFF;}
	.st2{fill:#334352;}
	.st3{fill:#14222E;}
	.st4{fill:#006A6A;}
	.st5{fill:#263543;}
	.st6{fill:#00A59B;}
	.st7{fill:#E4323B;}
	.st8{fill:none;}
	.st9{fill:url(#SVGID_1_);}
	.st10{fill:url(#SVGID_2_);}
	.st11{fill:#334A7F;}
	.st12{opacity:0.67;fill:url(#SVGID_3_);enable-background:new    ;}
	.st13{opacity:0.67;fill:url(#SVGID_4_);enable-background:new    ;}
	.st14{opacity:0.67;fill:url(#SVGID_5_);enable-background:new    ;}
	.st15{fill:none;stroke:#FFFFFF;stroke-width:5;stroke-miterlimit:10;}
	.st16{fill:url(#SVGID_6_);}
	.st17{fill:url(#SVGID_7_);}
	.st18{fill:url(#SVGID_8_);}
	.st19{fill:url(#SVGID_9_);}
	.st20{fill:url(#SVGID_10_);}
	.st21{fill:url(#SVGID_11_);}
	.st22{fill:url(#SVGID_12_);}
	.st23{fill:url(#SVGID_13_);}
	.st24{fill:url(#SVGID_14_);}
	.st25{fill:url(#SVGID_15_);}
	.st26{fill:url(#SVGID_16_);}
	.st27{fill:url(#SVGID_17_);}
	.st28{fill:url(#SVGID_18_);}
	.st29{fill:url(#SVGID_19_);}
</style>
<path class="st0" d="M-2698.9-203.8c0,0,7.3,19.4-20.7,61.4s32.5,133,32.5,133s-21.8-74.9,0-126.5S-2698.9-203.8-2698.9-203.8z"/>
<path class="st1" d="M-2034.5-239v89.9l61.5,34.1v-83c0-4.1,2.3-7.9,5.9-9.8l40.2-21.4l44.9,21.5c3.9,1.9,6.3,5.8,6.3,10v82.6
	l61.5-34.1V-239l-109-62.7L-2034.5-239z"/>
<rect x="-1956" y="-177.1" class="st1" width="64.3" height="31.9"/>
<g>
	<path class="st2" d="M-2286.4-711.7c-46-62.4,62.8-140.4,140.4-140.4c9.1,0,17.9,0.9,26.5,2.5l-8.1-21.3c-6-0.7-12.1-1-18.3-1
		c-88.5,0-160.2,71.7-160.2,160.2s71.7,160.2,160.2,160.2c72.1,0,133-47.6,153.1-113C-1992.9-664.5-2091.8-447.6-2286.4-711.7z"/>
</g>
<g>
	<path class="st3" d="M-2062.9-761.8l-0.5-1.7c-0.7-2.6-1.5-5.3-2.3-8c-2.2-7.1-4.7-12.7-7.9-17.4c-0.8-1.2-7.2-12.2-7.8-13.3
		c-3.5-6.5-6.1-13.5-7.8-20.8c-1.2-5.4-2.9-11-6.3-16.3c-1.4-2.2-2.9-4.3-4.4-6.4c0.1-0.2,0.3-0.4,0.4-0.6c2.3-3.4,5-8,6-13.9
		c0.4-2.3-0.3-4.1-0.7-4.9v-0.1l-2.6-9.4l-7.7,5.9c0,0-0.1,0-0.1,0.1c-0.8,0.5-2.8,1.7-3.8,4.1c-0.1,0.3-0.3,0.6-1.2,1.1
		s-1.9,0.9-2.8,1.4c-1.5,0.7-3,1.5-4.5,2.3c-0.3-0.1-0.6-0.3-0.8-0.4c-0.5-1.5-1.1-3.1-2-4.7c-1.3-2.5-2.2-4.4-2.5-6.3
		c-0.5-3.5-2.6-6.2-5.6-7.2s-6.2-0.1-8.7,2.3c-1.8,1.8-3.3,3.6-4.5,5.5c-0.4-0.1-0.8-0.2-1.2-0.3l-3,17.5c0.1,0.2,0.1,0.4,0.2,0.7
		c0.2,0.6,0.4,1.1,0.6,1.7c0.5,1.6,1.5,3,2.8,4.2l15.1,14.1l-4.1-21.5c-0.2-0.8-0.3-1.7-0.5-2.5c-0.1-0.4-0.2-0.9-0.2-1.4
		c0.5,1,0.9,2.1,1.3,3.2c0.2,0.7,0.5,1.4,0.8,2.1l0.9,2.4l2.2,1.2c0.5,0.3,1,0.5,1.6,0.8c1,0.5,2,0.9,2.7,1.4
		c1.8,1.2,3.7,1.7,5.7,1.5l2.7,3.8c0.7,1,1.5,2,2.2,3.1c1.6,2.2,3.3,4.5,4.8,6.8c2.3,3.5,3.5,7.8,4.5,11.9c2,8.5,5,16.6,9,24.1
		c0.7,1.2,7.5,13,8.5,14.5c2.4,3.7,4.4,8.1,6.2,13.9c0.8,2.5,1.5,5.2,2.3,7.7l0.5,1.7l0,0c0.7,2.4,0.3,2.7-0.6,3.2
		c-2.4,1.4-4.3,3.9-5.3,6.5c-0.1,0.2-0.1,0.3-0.2,0.5c-0.2,0-0.6-0.1-1-0.4l-3.6-1.7l-2.6,1.9c-0.2-0.1-0.5-0.3-0.9-0.6
		c-1.4-0.9-2.6-1.7-3.6-2.5c-0.5-5.3-3.7-8.9-5.5-10.9c-5.9-6.5-13-11.3-19.8-15.9l-0.4-0.3c-3-2-6.1-2.8-9.7-2.4
		c-2,0.2-4.7,0-8.2-4.2c-2-2.3-3.1-4.9-3.5-7.8c-0.5-3.8-0.8-7.5-1.2-11.1c-0.1-1.5-0.3-2.9-0.4-4.3l-2.7-27l-10.1,25.1l-3.2-4.4
		l-5.3,8.4c-0.2,0.4-0.5,0.7-0.7,1.1c-0.7,1-1.5,2.2-2.2,3.7c-2.5,5.7-2.9,11.9-1.3,18.5c2.9,11.3,8.9,20.6,14.4,28.4
		c4.6,6.6,9.4,13.2,14,19.6c3.1,4.3,6.3,8.6,9.4,13c7.3,10.2,12.5,18.8,16.6,27.1c3.8,7.8,6.2,15,7.4,21.9c0.1,0.7,0.2,3.6,0.3,5.3
		c0.1,1.3,0.1,2.6,0.2,3.5c0,0.4,0.1,0.9,0.1,1.4c-0.1,0.6-0.1,1.2-0.2,1.8c-0.2,1.7-0.3,3.3-0.6,4.7c-2.9,12.7-10.6,23.2-24.3,33.3
		c-1.5,1.1-3.2,2.3-5.5,3.8l-1.6,1.1l-4.5,2.3l-63.1,50.6c126.8-59.8,110-81,113.1-97.6l-0.5-9.9c-0.1-1-0.1-1.8-0.2-2.3
		c-1.4-8.3-4.2-16.7-8.5-25.6c-4.4-9-10-18.2-17.7-29c-3.1-4.4-6.3-8.8-9.4-13.1c-4.6-6.3-9.3-12.9-13.9-19.4
		c-5.9-8.5-10.3-15.8-12.4-24.1c-0.9-3.4-0.8-6.3,0.2-9h0.1c0.1,1.3,0.3,2.7,0.5,4c0.7,5.5,3,10.6,6.6,14.9
		c7.1,8.3,14.8,9.3,19.9,8.8c0.2,0,0.2,0,0.3,0c0,0,0.1,0.1,0.3,0.2l0.4,0.3c6.4,4.4,12.5,8.5,17.4,13.9c1.8,2,2.2,2.7,2.1,3.4
		c-0.1,4.2,2.9,7.2,3.9,8c1.7,1.5,3.6,2.8,5.9,4.3c1.7,1.1,6.4,4,11.7,2.3c3.1,0.8,6.1,0.6,8.8-0.5c2.4-1,5.6-3.2,7.5-8.2
		C-2065.3-746-2059.9-751.4-2062.9-761.8z"/>
</g>
<path class="st3" d="M-2041.8-706.9c0,0-40.9,24.1-50.2,41.8s19.4-45.1,19.4-45.1l26.3-11.2L-2041.8-706.9z"/>
<path class="st4" d="M-2065.3-630.2l3.9-6.1c5.3-3,7.2-4,8.7-3.5s0.5,1.5,2.9,3.5c2.4,2,4.8,0,4.8,0s0-2,0.5-3.5s1.9-5.1,1.9-5.1
	s5.3-7.6,5.8-9.1s2.4-3.5,2.4-5.1c0-1.1-1.6-4-2.2-6.6c-0.5,1.3-1.8,2.8-2.1,3.9c-0.5,1.5-5.8,9.1-5.8,9.1s-1.5,3.5-1.9,5.1
	c-0.5,1.5-0.5,3.5-0.5,3.5s-2.4,2-4.8,0c-2.4-2-1.5-3-2.9-3.5c-1.5-0.5-3.4,0.5-8.7,3.5l-3.9,6.1l-1.9,5.1c0,0-1.5,9.1-1.5,11.1
	c0,0.9,0.9,2.9,2.2,5.1c0.4-3.4,1.2-8.5,1.2-8.5L-2065.3-630.2z"/>
<g>
	<path class="st4" d="M-1987.8-694c-0.1-0.1-0.3-0.2-0.5-0.3c-0.9,3.5-2.2,6.8,2,7.7C-1985.5-689.3-1985.1-692.2-1987.8-694z"/>
	<path class="st4" d="M-1989.7-701.8c-4.4-3.1-10.9-4.3-14.2-8.8c-3.2-4.3-4.2-6-9.9-6.7c-6.5-0.8-12.7-3-19.1-3.7
		c0,0,1.5,8.1,1.5,9.6s1.5,9.1,1.9,10.6c0.5,1.5-0.5,8.1,0.5,10.1c0.4,0.9,1,2.4,1.5,3.9c0-2.5,0.3-5.3,0-6.3
		c-0.5-1.5-1.9-9.1-1.9-10.6s-1.5-9.6-1.5-9.6c6.4,0.7,12.6,2.9,19.1,3.7c5.8,0.7,6.7,2.4,9.9,6.7c3.2,4.3,9.4,5.7,13.7,8.5
		C-1987.5-697-1987.1-699.9-1989.7-701.8z"/>
</g>
<path class="st4" d="M-2281.5-673.8l-12.2,9.4c11.1,46.6,44.8,82.2,89.4,97.9h0.4C-2278.7-602.5-2281.5-673.8-2281.5-673.8z"/>
<g>
	<path class="st3" d="M-2189.1-885.4l-7.6-43.6c-0.3,0.1-0.6,0.1-0.9,0.1c-0.5,9-2.7,28.8-12.6,30.5c-5.6,1-18.8-8.4-24.1-12.3
		c1.4-1,2.2-2.7,1.8-4.4c-0.4-2.4-2.7-4.1-5.2-3.6c-2.4,0.4-4.1,2.7-3.6,5.2c0.4,2.4,2.7,4.1,5.2,3.6c0.3,0,0.5-0.1,0.8-0.2
		l17.9,33.4c7.6-3.7,16.2-6.5,25.3-8.1C-2191.1-885.1-2190.1-885.2-2189.1-885.4z"/>
	<path class="st3" d="M-2204.2-906.6c0,0-5.6-5.6-8.9-10.1c1.2-0.6,1.9-2,1.7-3.4c-0.3-1.8-2-2.9-3.7-2.6c-1.8,0.3-2.9,2-2.6,3.7
		c0.3,1.7,1.9,2.9,3.6,2.6c0.2,3.6,0.4,11-1,14.9C-2215.1-901.4-2208.3-896-2204.2-906.6z"/>
	<path class="st5" d="M-2170-909.3c-2.6-3.2-4.9-10.2-6-13.6c1.7-0.4,2.8-2,2.5-3.7c-0.3-1.8-2-2.9-3.7-2.6c-1.8,0.3-2.9,2-2.6,3.7
		c0.2,1.4,1.4,2.5,2.8,2.7c-1.6,5.3-5,12.5-5,12.5C-2174.6-901.8-2170-909.3-2170-909.3z"/>
	<path class="st5" d="M-2189.1-885.4c10.2-1.4,20.1-1.3,29.3,0.3l5.8-39.3c0.3,0,0.5,0,0.8-0.1c2.4-0.4,4.1-2.7,3.6-5.2
		c-0.4-2.4-2.7-4.1-5.2-3.6c-2.4,0.4-4.1,2.7-3.6,5.2c0.3,1.8,1.6,3.1,3.2,3.5c-3.6,5.5-12.9,18.7-18.5,19.7
		c-9.9,1.7-18.7-16.1-22.2-24.5c-0.3,0.1-0.6,0.2-0.9,0.2L-2189.1-885.4z"/>
	<path class="st3" d="M-2195.8-929.3c1.9-0.8,3.1-2.8,2.8-4.9c-0.4-2.4-2.7-4.1-5.2-3.6c-2.4,0.4-4.1,2.7-3.6,5.2
		c0.4,2.1,2.2,3.6,4.3,3.7c0.2-2.7,0.1-4.5,0.1-4.5S-2196.8-931.8-2195.8-929.3z"/>
	<path class="st3" d="M-2197.4-933.4c0,0,0,1.8-0.1,4.5c0.3,0,0.6,0,0.9-0.1L-2197.4-933.4z"/>
	<path class="st3" d="M-2196.7-929c0.3-0.1,0.6-0.1,0.9-0.2c-1.1-2.5-1.6-4.2-1.6-4.2L-2196.7-929z"/>
</g>
<path class="st4" d="M-2115.1-830.2l9.1,19.2l-4.2-6.2C-2110.2-817.2-2121.6-817.1-2115.1-830.2z"/>
<path class="st3" d="M-2267.8-818c0,0-17.4,35.4,17,76.9s20.1-57.2,20.1-57.2L-2267.8-818z"/>
<path class="st6" d="M-2047.6-468.2c-0.4-1.5-0.8-3-1.3-4.5c-0.8-2.6-1.8-5.1-3.3-7.3c-0.4-0.6-3.5-5.9-3.8-6.5
	c-1.8-3.3-3.1-6.8-3.9-10.5c-0.5-2.3-1.2-4.6-2.5-6.6c-1.1-1.6-2.2-3.2-3.3-4.7c0.4-0.6,1-1.3,1.5-2c1.1-1.6,2-3.3,2.3-5.3
	c0-0.3-0.2-0.6-0.2-0.9c-0.3,0.2-0.6,0.3-0.7,0.6c-0.4,1-1.1,1.7-2.1,2.1c-1.4,0.7-2.9,1.4-4.2,2.2c-0.5,0.3-0.7,0.4-1.2,0
	c-0.7-0.5-1.5-0.8-2.3-1.2c-0.4-0.9-0.7-2-1.2-3c-0.7-1.3-1.3-2.5-1.5-3.9c-0.1-0.9-0.7-1.2-1.4-0.5c-2.1,2-3.3,4.3-2.8,7.4
	c0.1,0.6,0.2,1.2,0.3,1.8c-0.2-0.2-0.4-0.4-0.5-0.7c-0.4-1.2-0.9-2.4-1.1-3.6c-0.2-0.9-0.7-1.4-1.6-1.6c-0.9-0.2-1.8-0.4-2.6-0.6
	c-2.7-0.8-5.6-1-8.4-1.2c-1.6-0.1-3.3,0-4.9,0.2c-2.7,0.3-5.3,0.6-8,1.2c-4.3,0.9-8.4,2.5-12.3,4.5c-7.2,3.7-13.1,8.7-17.2,15.7
	c-2,3.5-3.3,7.3-3.7,11.3c-0.2,2.3,0,4.6,0.2,6.9c0.3,3.3-1.7,13.4-0.5,16.4c2.6,6,9.4,4.1,13.9,8.8c4.3,4.6,9.1,8.6,13.9,12.6
	c5.2,4.3,10.4,8.5,15.4,13c5.4,4.8,10,10.3,12.9,17.1c1.2,2.7,2,5.5,2.3,8.5c0.1,1.5,0.2,3,0.3,4.4c0,0.3,0.2,0.6,0.2,0.9
	c0.3-0.1,0.6-0.1,0.9-0.3c1.9-1.3,3.8-2.5,5.7-3.8c6-4.4,10.8-9.8,12.5-17.4c0.3-1.2,0.3-2.6,0.5-3.8c-0.1,0-0.2-4.3-0.3-5.2
	c-0.6-3.9-2-7.6-3.7-11.1c-2.3-4.6-5-8.9-8-13.1c-3.6-5.1-7.3-10.1-10.9-15.2c-2.6-3.8-5.1-7.7-6.3-12.3c-0.6-2.3-0.5-4.5,0.4-6.6
	c0.3-0.6,0.7-1.2,1.1-1.8c1,1.4,3.6-0.8,4.2-2.3c0.2,2.2,0.4,4.8,0.8,7.3c0.2,2,1.1,3.8,2.4,5.3c1.7,2,3.8,3.3,6.6,3
	c1-0.1,1.7,0.1,2.4,0.6c3.1,2.1,6.3,4.2,8.8,7.1c1,1.1,1.9,2.2,1.8,3.8c0,0.4,0.4,1,0.7,1.3c0.7,0.6,1.6,1.2,2.4,1.7
	c1.2,0.7,2.4,1.3,3.6,0.4c1.9,0.9,4,0.7,4.9-1.8c0.2-0.5,0.6-1.1,1.1-1.4C-2047.1-464.4-2047.1-466.3-2047.6-468.2z"/>
<path class="st4" d="M-2247.7-542.5c0.5,0.4,0.8,0.3,1.3,0c1.5-0.8,3-1.5,4.5-2.3c0.7-1.2,1.2-2.5,1.5-3.9c0-0.3-0.2-0.6-0.2-0.9
	c-0.3,0.2-0.6,0.3-0.7,0.6c-0.4,1-1.1,1.7-2.1,2.1c-1.4,0.7-2.9,1.4-4.2,2.2c-0.5,0.3-0.7,0.4-1.2,0c-0.7-0.4-1.4-0.8-2.1-1.1
	c0.3,0.7,0.5,1.4,0.7,2C-2249.4-543.4-2248.5-543-2247.7-542.5z"/>
<path class="st4" d="M-2130-867c-0.1-0.3-0.1-0.6-0.2-0.9c-0.3-2-1.6-2.5-3-1.1c-4.4,4.3-7.2,9.3-5.9,15.7c0.1,0.4,0.1,0.8,0.2,1.1
	c0-5.5,2.8-10,6.8-14C-2131.3-866.9-2130.6-867.2-2130-867z"/>
<path class="st4" d="M-2234.7-496c-0.9-0.6-1.9-1.2-2.7-2c-0.4-0.4-0.8-1-0.8-1.4c0.1-1.8-0.9-3.1-2-4.3c-2.9-3.2-6.5-5.6-10-8
	c-0.8-0.6-1.6-0.8-2.7-0.7c-3.1,0.4-5.5-1.2-7.4-3.4c-1.2-1.4-2-3-2.5-4.8c0.1,1.4,0.3,3,0.5,4.5c0.2,2,1.1,3.8,2.4,5.3
	c1.7,2,3.8,3.3,6.6,3c1-0.1,1.7,0.1,2.4,0.6c3.1,2.1,6.3,4.2,8.8,7.1c1,1.1,1.9,2.2,1.8,3.8c0,0.4,0.4,1,0.7,1.3
	c0.7,0.6,1.6,1.2,2.4,1.7c1.2,0.7,2.4,1.3,3.6,0.4c1.9,0.9,4,0.7,4.9-1.8c0-0.1,0.1-0.2,0.1-0.3c-0.6,0-1.3-0.2-1.9-0.5
	C-2232-494.6-2233.4-495.2-2234.7-496z"/>
<path class="st4" d="M-2142.6-860.4c-0.6-0.8-1.4-1.3-2.6-1.6c-1.9-0.4-3.7-0.8-5.6-1.4c-5.8-1.8-11.9-2.2-17.9-2.6
	c-3.5-0.2-7.1,0.1-10.6,0.5c-5.7,0.7-11.4,1.3-17,2.5c-9.2,1.9-18,5.3-26.4,9.6c-15.3,7.9-28.1,18.6-36.8,33.7
	c-4.3,7.5-7,15.6-7.9,24.1c-0.5,4.9,0,9.9,0.4,14.8c0,0.5-18.4,29.3-18.3,29.7C-2276.1-773.1-2220.7-875.8-2142.6-860.4z"/>
<g>
	<path class="st4" d="M-2242.9-694.9c0,0.1,0,0.1,0.1,0.1C-2242.8-694.9-2242.8-694.9-2242.9-694.9z"/>
	<path class="st4" d="M-2226.2-822.6c-0.7-0.1-1.4,0-2.1,0.5c-1.2,0.7-2.3,1.5-3.5,2.1c-3.9,2.1-7.1,5-10.4,7.8
		c-1.9,1.7-3.5,3.6-5.1,5.6c-2.5,3.2-5.1,6.5-7.4,9.9c-3.7,5.7-6.4,11.8-8.4,18.3c-3.7,11.8-4.8,23.7-1.5,35.7
		c1.6,6,4.4,11.5,8.3,16.2c1.7,2.1,3.8,3.9,5.9,5.7C-2257.3-751.7-2260.3-799.6-2226.2-822.6z"/>
</g>
<path class="st7" d="M-2261.8-700.7c2.4-4,3.3-6.5,3.3-6.5S-2260.3-703.7-2261.8-700.7z"/>
<path class="st4" d="M-2044.2-710.6l-37.5,23.2l-8,8.4l-11.7,12.8c0,0-13.3,12.3-13.3,13.9c0,1.2-2,5.5-3.3,8.1
	c0,0.2-0.1,0.3-0.1,0.5c-4.1,17.8-15.4,30.5-29.6,41c-2.4,1.8-4.9,3.5-7.4,5.1c0,0.2,0.1,0.4,0.1,0.6c-8.3,9.2-18,16.5-28.2,23.3
	c1.5-0.7,2.9-1.5,4.2-2.3c16.1-10.3,33-19.6,46-34.1c0-0.2-0.1-0.4-0.1-0.6c2.3-1.5,4.5-3,6.7-4.6c12.9-9.5,23.1-21.1,26.8-37.2
	c0-0.1,0-0.3,0.1-0.4c1.1-2.3,3-6.3,3-7.3c0-1.5,12.1-12.6,12.1-12.6l10.6-11.6l7.3-7.6l11.3-9.8l2.9-2L-2044.2-710.6z"/>
<path class="st8" d="M-2163.1-601.6c0.3,0.1,0.7,0.2,1,0.3c-0.7-0.5-1.3-1.1-2-1.6L-2163.1-601.6z"/>
<image style="overflow:visible;enable-background:new    ;" width="1430" height="1376" xlink:href="4655A63C.jpeg"  transform="matrix(0.2961 0 0 0.2961 -3000.7754 -662.7271)">
</image>
<g>
	<g>
		
			<linearGradient id="SVGID_1_" gradientUnits="userSpaceOnUse" x1="39.7625" y1="7" x2="21.5164" y2="21.5969" gradientTransform="matrix(1 0 0 -1 0 36)">
			<stop  offset="0" style="stop-color:#2F4170"/>
			<stop  offset="0.1093" style="stop-color:#384F81"/>
			<stop  offset="0.2997" style="stop-color:#446399"/>
			<stop  offset="0.5024" style="stop-color:#4C71AA"/>
			<stop  offset="0.724" style="stop-color:#5179B4"/>
			<stop  offset="1" style="stop-color:#537CB7"/>
		</linearGradient>
		<path class="st9" d="M39.4,33.6H13.6c-1.3,0-2.4-1.1-2.4-2.4V5.5c0-1.3,1.1-2.4,2.4-2.4h25.7c1.3,0,2.4,1.1,2.4,2.4v25.7
			C41.8,32.5,40.7,33.6,39.4,33.6z"/>
		
			<linearGradient id="SVGID_2_" gradientUnits="userSpaceOnUse" x1="39.1149" y1="7.5781" x2="20.6561" y2="22.3451" gradientTransform="matrix(1 0 0 -1 0 36)">
			<stop  offset="0" style="stop-color:#2F4170"/>
			<stop  offset="0.1093" style="stop-color:#384F81"/>
			<stop  offset="0.2997" style="stop-color:#446399"/>
			<stop  offset="0.5024" style="stop-color:#4C71AA"/>
			<stop  offset="0.724" style="stop-color:#5179B4"/>
			<stop  offset="1" style="stop-color:#537CB7"/>
		</linearGradient>
		<path class="st10" d="M39.2,33h-27c-1,0-1.9-0.8-1.9-1.9V4.2c0-1,0.8-1.9,1.9-1.9h26.9c1,0,1.9,0.8,1.9,1.9v26.9
			C41,32.1,40.2,33,39.2,33z"/>
		<path class="st11" d="M40.9,3.6C40.9,3.8,41,4,41,4.2v26.9c0,1-0.8,1.9-1.9,1.9H12.2c-0.1,0-0.2,0-0.3,0c0.4,0.4,1,0.7,1.7,0.7
			h25.7c1.3,0,2.4-1.1,2.4-2.4V5.5C41.8,4.7,41.4,4,40.9,3.6z"/>
		
			<linearGradient id="SVGID_3_" gradientUnits="userSpaceOnUse" x1="15.243" y1="33.5456" x2="20.8019" y2="25.6554" gradientTransform="matrix(1 0 0 -1 0 36)">
			<stop  offset="0" style="stop-color:#FFFFFF;stop-opacity:0.6"/>
			<stop  offset="1" style="stop-color:#001C24;stop-opacity:0"/>
		</linearGradient>
		<path class="st12" d="M39.5,3.3H13.1c-1,0-1.9,0.8-1.9,1.9v25.1C14.9,14.8,23,3.3,39.5,3.3z"/>
		
			<linearGradient id="SVGID_4_" gradientUnits="userSpaceOnUse" x1="-438.7188" y1="-1648.6503" x2="-433.1599" y2="-1656.5404" gradientTransform="matrix(-1 0 0 1 -401.889 1682.5291)">
			<stop  offset="0" style="stop-color:#FFFFFF;stop-opacity:0.6"/>
			<stop  offset="1" style="stop-color:#001C24;stop-opacity:0"/>
		</linearGradient>
		<path class="st13" d="M38.7,32.5h-26c-1.9,0.3,2.1,0.5,0.1,0.5h26.3c1,0,1.9-0.8,1.9-1.9V6c-0.1,0.6-0.3,1.2-0.5,1.8v22.8
			C40.5,31.6,39.7,32.5,38.7,32.5z"/>
		
			<linearGradient id="SVGID_5_" gradientUnits="userSpaceOnUse" x1="27.25" y1="33.4322" x2="27.25" y2="32.9523" gradientTransform="matrix(1 0 0 -1 0 36)">
			<stop  offset="0" style="stop-color:#FFFFFF;stop-opacity:0.6"/>
			<stop  offset="1" style="stop-color:#001C24;stop-opacity:0"/>
		</linearGradient>
		<path class="st14" d="M40.2,5.1v26c0.3,1.9,0.5-1.6,0.5,0.4V4.6c0-1-0.8-1.9-1.9-1.9h-25C14.4,2.9,15,3,15.6,3.2h22.8
			C39.4,3.2,40.2,4,40.2,5.1z"/>
		<g>
			<path class="st1" d="M17.2,11.7c0.6-0.9,1.3-1.8,2.1-2.7c0.2-0.2,0.4-0.4,0.6-0.6L20,8.2l0,0l0,0l0,0c0,0,0.1,0,0.1-0.1
				c0.1-0.1,0.3-0.1,0.4-0.2c0.3-0.1,0.6-0.1,0.9-0.1c0.3,0,0.6,0.1,0.9,0.3c0.3,0.2,0.5,0.4,0.7,0.7c0.2,0.3,0.3,0.6,0.3,0.9
				c0.1,0.6,0.2,1.2,0.1,1.8c-0.1,1.2-0.3,2.3-0.6,3.4c-0.6,2.2-1.2,4.4-1.9,6.5c-0.1,0.3-0.2,0.5-0.3,0.8c-0.1,0.3-0.2,0.5-0.3,0.8
				c-0.2,0.5-0.4,1.1-0.6,1.6c-0.2,0.5-0.4,1.1-0.6,1.6c-0.1,0.3-0.2,0.5-0.3,0.8c-0.1,0.3-0.2,0.5-0.4,0.8c0.7-2.2,1.3-4.3,1.9-6.5
				c0.6-2.2,1.2-4.3,1.7-6.5c0.1-0.5,0.3-1.1,0.4-1.6c0.1-0.5,0.2-1.1,0.2-1.6c0-0.5,0-1.1-0.1-1.6c-0.1-0.5-0.3-1-0.7-1.2
				c-0.2-0.1-0.4-0.2-0.7-0.2c-0.2,0-0.5,0-0.8,0.1c-0.1,0-0.2,0.1-0.4,0.1c0,0-0.1,0-0.1,0l0,0l0,0l0,0l-0.2,0.1
				c-0.2,0.2-0.4,0.4-0.6,0.6C18.7,10,17.9,10.8,17.2,11.7z"/>
			<path class="st15" d="M19.8,11.3"/>
			<path class="st15" d="M20.6,10.7"/>
			<g>
				<polygon class="st1" points="19.9,10.3 19.9,10.3 20.3,9.9 20.4,10 				"/>
			</g>
			<path class="st1" d="M34.1,15.4c0-0.1,0-0.1,0-0.2c0,0,0,0,0-0.1c0,0,0,0,0-0.1c0-0.1,0-0.1,0-0.2c0-0.2-0.1-0.4-0.2-0.5
				c-0.2-0.4-0.5-0.7-0.8-0.8c-0.2-0.1-0.4-0.2-0.6-0.2c-0.1,0-0.1,0-0.1,0c-0.1,0-0.1,0-0.2,0l-0.2,0c-1.2,0-2.5,0.2-3.8,0.5
				c-1.2,0.3-2.4,0.6-3.7,1.1c-0.7,0.3-1.4,0.5-2,0.9l0,0l-0.2,0.6l0.1-0.1c0.8-0.3,1.6-0.6,2.3-0.8c1.3-0.4,2.5-0.7,3.6-1
				c1.3-0.3,2.5-0.4,3.7-0.4l0.2,0c0,0,0.1,0,0.1,0c0,0,0.1,0,0.1,0c0.1,0,0.2,0.1,0.3,0.1c0.2,0.1,0.4,0.3,0.5,0.5
				c0.1,0.1,0.1,0.2,0.1,0.4c0,0,0,0.1,0,0.1c0,0,0,0,0,0.1c0,0,0,0.1,0,0.1c0,0,0,0.1,0,0.1c0,0.3,0,0.5,0,0.9l0,0
				c0,0.1,0,0.1,0,0.2l0,0.1l0,0.1c0,0.1-0.1,0.3-0.1,0.4l0,0.1c0,0.1-0.1,0.2-0.1,0.3c-0.1,0.2-0.1,0.4-0.2,0.6
				c-0.2,0.7-0.4,1.3-0.5,1.9c-0.1,0.6-0.3,1.2-0.4,1.9c-0.1,0.7-0.2,1.3-0.2,1.9c0,0.7,0.1,1.3,0.2,1.9c0.1,0.4,0.2,0.7,0.3,0.9
				c0.1,0.3,0.3,0.6,0.5,0.8l0.1-0.1c-0.1-0.1-0.2-0.3-0.2-0.4c-0.1-0.2-0.1-0.3-0.2-0.4c-0.1-0.3-0.2-0.5-0.2-0.9
				c-0.1-0.5-0.1-1.1,0-1.9c0.1-1.1,0.3-2.3,0.7-3.7c0.1-0.6,0.3-1.1,0.5-1.8l0.3-1c0-0.1,0.1-0.2,0.1-0.4l0.1-0.3
				c0-0.1,0-0.2,0-0.3C34.1,16.1,34.1,15.8,34.1,15.4z"/>
		</g>
	</g>
	<g>
		
			<linearGradient id="SVGID_6_" gradientUnits="userSpaceOnUse" x1="52.2" y1="8.5692" x2="52.2" y2="26.1498" gradientTransform="matrix(1 0 0 -1 0 36)">
			<stop  offset="0" style="stop-color:#2F4170"/>
			<stop  offset="0.1093" style="stop-color:#384F81"/>
			<stop  offset="0.2997" style="stop-color:#446399"/>
			<stop  offset="0.5024" style="stop-color:#4C71AA"/>
			<stop  offset="0.724" style="stop-color:#5179B4"/>
			<stop  offset="1" style="stop-color:#537CB7"/>
		</linearGradient>
		<path class="st16" d="M47.1,25V8.9h3.1v7.3c0.1-0.4,0.4-0.8,0.7-1.1c0.4-0.3,0.7-0.5,1.1-0.6c0.4-0.1,0.7-0.2,1.1-0.2
			c1.4,0,2.4,0.4,3.1,1.3c0.7,0.9,1.1,2.1,1.1,3.7V25h-3.1v-5.5c0-0.6-0.2-1.1-0.6-1.5c-0.4-0.4-0.8-0.6-1.3-0.6
			c-0.6,0-1.1,0.2-1.5,0.5s-0.6,0.9-0.6,1.6V25H47.1z"/>
		
			<linearGradient id="SVGID_7_" gradientUnits="userSpaceOnUse" x1="64.75" y1="8.5691" x2="64.75" y2="26.1499" gradientTransform="matrix(1 0 0 -1 0 36)">
			<stop  offset="0" style="stop-color:#2F4170"/>
			<stop  offset="0.1093" style="stop-color:#384F81"/>
			<stop  offset="0.2997" style="stop-color:#446399"/>
			<stop  offset="0.5024" style="stop-color:#4C71AA"/>
			<stop  offset="0.724" style="stop-color:#5179B4"/>
			<stop  offset="1" style="stop-color:#537CB7"/>
		</linearGradient>
		<path class="st17" d="M60.1,22.6c-0.5-0.8-0.7-1.8-0.7-2.9s0.2-2,0.7-2.8s1.1-1.5,2-1.9c0.8-0.4,1.7-0.7,2.7-0.7
			c0.7,0,1.4,0.1,2.1,0.4c0.7,0.3,1.2,0.6,1.7,1.1c0.5,0.5,0.9,1.1,1.1,1.7c0.3,0.7,0.4,1.4,0.4,2.2c0,0.3,0,0.6,0,1h-7.7
			c0.1,0.6,0.4,1,0.9,1.3s1.1,0.5,1.7,0.5c0.5,0,0.9-0.1,1.3-0.3c0.4-0.2,0.7-0.4,1-0.7l2.3,1.5c-0.5,0.7-1.2,1.3-2,1.6
			c-0.9,0.3-1.8,0.5-2.8,0.5s-1.9-0.2-2.7-0.7C61.3,24.1,60.6,23.5,60.1,22.6z M62.5,18.9H67c-0.1-0.6-0.3-1-0.8-1.3
			c-0.4-0.3-0.9-0.4-1.4-0.4s-1,0.1-1.5,0.4C62.9,17.9,62.7,18.3,62.5,18.9z"/>
		
			<linearGradient id="SVGID_8_" gradientUnits="userSpaceOnUse" x1="73.85" y1="8.5692" x2="73.85" y2="26.1498" gradientTransform="matrix(1 0 0 -1 0 36)">
			<stop  offset="0" style="stop-color:#2F4170"/>
			<stop  offset="0.1093" style="stop-color:#384F81"/>
			<stop  offset="0.2997" style="stop-color:#446399"/>
			<stop  offset="0.5024" style="stop-color:#4C71AA"/>
			<stop  offset="0.724" style="stop-color:#5179B4"/>
			<stop  offset="1" style="stop-color:#537CB7"/>
		</linearGradient>
		<path class="st18" d="M72.3,25V8.9h3.1V25H72.3z"/>
		
			<linearGradient id="SVGID_9_" gradientUnits="userSpaceOnUse" x1="83.85" y1="8.5691" x2="83.85" y2="26.1499" gradientTransform="matrix(1 0 0 -1 0 36)">
			<stop  offset="0" style="stop-color:#2F4170"/>
			<stop  offset="0.1093" style="stop-color:#384F81"/>
			<stop  offset="0.2997" style="stop-color:#446399"/>
			<stop  offset="0.5024" style="stop-color:#4C71AA"/>
			<stop  offset="0.724" style="stop-color:#5179B4"/>
			<stop  offset="1" style="stop-color:#537CB7"/>
		</linearGradient>
		<path class="st19" d="M78.3,30.1V14.6h3.1v1.3c0.3-0.5,0.7-0.8,1.2-1.1c0.6-0.3,1.2-0.4,1.8-0.4c0.7,0,1.3,0.1,1.9,0.4
			c0.6,0.3,1.1,0.6,1.6,1.1c0.5,0.5,0.8,1,1.1,1.7c0.3,0.7,0.4,1.4,0.4,2.2c0,0.8-0.1,1.6-0.4,2.3c-0.3,0.7-0.6,1.3-1.1,1.7
			c-0.5,0.5-1,0.8-1.6,1.1c-0.6,0.3-1.3,0.4-1.9,0.4c-0.7,0-1.3-0.1-1.8-0.4c-0.6-0.3-1-0.6-1.2-1.1v6.4h-3.1V30.1z M81.4,19.8
			c0,0.7,0.2,1.3,0.7,1.8c0.5,0.4,1,0.7,1.7,0.7s1.2-0.2,1.7-0.7s0.7-1,0.7-1.8c0-0.7-0.2-1.4-0.7-1.8c-0.5-0.5-1-0.7-1.7-0.7
			s-1.2,0.2-1.7,0.7C81.7,18.5,81.4,19.1,81.4,19.8z"/>
		
			<linearGradient id="SVGID_10_" gradientUnits="userSpaceOnUse" x1="94.6" y1="8.5691" x2="94.6" y2="26.1499" gradientTransform="matrix(1 0 0 -1 0 36)">
			<stop  offset="0" style="stop-color:#2F4170"/>
			<stop  offset="0.1093" style="stop-color:#384F81"/>
			<stop  offset="0.2997" style="stop-color:#446399"/>
			<stop  offset="0.5024" style="stop-color:#4C71AA"/>
			<stop  offset="0.724" style="stop-color:#5179B4"/>
			<stop  offset="1" style="stop-color:#537CB7"/>
		</linearGradient>
		<path class="st20" d="M90.7,17v-2.5h2v-0.7c0-1.6,0.4-2.8,1.2-3.7c0.8-0.9,2-1.3,3.5-1.3h1.1v2.9h-1.1c-0.5,0-0.9,0.2-1.2,0.5
			c-0.3,0.3-0.4,0.8-0.4,1.5v0.7h2.1V17h-2.1v8h-3.1v-8H90.7z"/>
		
			<linearGradient id="SVGID_11_" gradientUnits="userSpaceOnUse" x1="104.7" y1="8.5691" x2="104.7" y2="26.1499" gradientTransform="matrix(1 0 0 -1 0 36)">
			<stop  offset="0" style="stop-color:#2F4170"/>
			<stop  offset="0.1093" style="stop-color:#384F81"/>
			<stop  offset="0.2997" style="stop-color:#446399"/>
			<stop  offset="0.5024" style="stop-color:#4C71AA"/>
			<stop  offset="0.724" style="stop-color:#5179B4"/>
			<stop  offset="1" style="stop-color:#537CB7"/>
		</linearGradient>
		<path class="st21" d="M99.7,20.8v-6.2h3.1v5.6c0,0.4,0.1,0.7,0.2,1s0.3,0.5,0.5,0.6s0.4,0.2,0.6,0.3c0.2,0.1,0.4,0.1,0.6,0.1
			c0.5,0,1-0.2,1.4-0.5s0.5-0.9,0.5-1.6v-5.6h3.1V25h-3.1v-1.4c-0.3,0.5-0.7,0.9-1.2,1.2c-0.5,0.3-1,0.4-1.5,0.4
			c-1.2,0-2.2-0.4-3-1.1C100.1,23.3,99.7,22.2,99.7,20.8z"/>
		
			<linearGradient id="SVGID_12_" gradientUnits="userSpaceOnUse" x1="114.05" y1="8.5692" x2="114.05" y2="26.1498" gradientTransform="matrix(1 0 0 -1 0 36)">
			<stop  offset="0" style="stop-color:#2F4170"/>
			<stop  offset="0.1093" style="stop-color:#384F81"/>
			<stop  offset="0.2997" style="stop-color:#446399"/>
			<stop  offset="0.5024" style="stop-color:#4C71AA"/>
			<stop  offset="0.724" style="stop-color:#5179B4"/>
			<stop  offset="1" style="stop-color:#537CB7"/>
		</linearGradient>
		<path class="st22" d="M112.5,25V8.9h3.1V25H112.5z"/>
		
			<linearGradient id="SVGID_13_" gradientUnits="userSpaceOnUse" x1="120" y1="8.5691" x2="120" y2="26.15" gradientTransform="matrix(1 0 0 -1 0 36)">
			<stop  offset="0" style="stop-color:#2F4170"/>
			<stop  offset="0.1093" style="stop-color:#384F81"/>
			<stop  offset="0.2997" style="stop-color:#446399"/>
			<stop  offset="0.5024" style="stop-color:#4C71AA"/>
			<stop  offset="0.724" style="stop-color:#5179B4"/>
			<stop  offset="1" style="stop-color:#537CB7"/>
		</linearGradient>
		<path class="st23" d="M119,24.8c-0.3-0.3-0.4-0.6-0.4-1s0.1-0.7,0.4-1s0.6-0.4,1-0.4s0.8,0.1,1,0.4c0.3,0.3,0.4,0.6,0.4,1
			s-0.1,0.7-0.4,1s-0.6,0.4-1.1,0.4C119.6,25.2,119.3,25.1,119,24.8z"/>
		
			<linearGradient id="SVGID_14_" gradientUnits="userSpaceOnUse" x1="126.75" y1="8.5691" x2="126.75" y2="26.1499" gradientTransform="matrix(1 0 0 -1 0 36)">
			<stop  offset="0" style="stop-color:#2F4170"/>
			<stop  offset="0.1093" style="stop-color:#384F81"/>
			<stop  offset="0.2997" style="stop-color:#446399"/>
			<stop  offset="0.5024" style="stop-color:#4C71AA"/>
			<stop  offset="0.724" style="stop-color:#5179B4"/>
			<stop  offset="1" style="stop-color:#537CB7"/>
		</linearGradient>
		<path class="st24" d="M123.2,16.3v-1.7h2v-1.1c0-1.4,0.3-2.6,1-3.4c0.7-0.8,1.7-1.2,3-1.2h1.1v1.9h-1.2c-0.4,0-0.7,0.1-1,0.2
			c-0.3,0.1-0.5,0.4-0.6,0.6c-0.1,0.3-0.2,0.5-0.3,0.8c0,0.3-0.1,0.6-0.1,1v1.1h2.4v1.7h-2.4V25h-2v-8.7H123.2z"/>
		
			<linearGradient id="SVGID_15_" gradientUnits="userSpaceOnUse" x1="136.55" y1="8.5691" x2="136.55" y2="26.1499" gradientTransform="matrix(1 0 0 -1 0 36)">
			<stop  offset="0" style="stop-color:#2F4170"/>
			<stop  offset="0.1093" style="stop-color:#384F81"/>
			<stop  offset="0.2997" style="stop-color:#446399"/>
			<stop  offset="0.5024" style="stop-color:#4C71AA"/>
			<stop  offset="0.724" style="stop-color:#5179B4"/>
			<stop  offset="1" style="stop-color:#537CB7"/>
		</linearGradient>
		<path class="st25" d="M131.1,19.8c0-1.1,0.2-2,0.7-2.9c0.5-0.8,1.1-1.5,1.9-1.9c0.8-0.4,1.7-0.7,2.6-0.7c0.8,0,1.5,0.2,2.2,0.5
			s1.2,0.8,1.5,1.3v-1.6h2V25h-2v-1.6c-0.3,0.6-0.8,1-1.5,1.3s-1.4,0.5-2.1,0.5c-1.5,0-2.7-0.5-3.8-1.5
			C131.7,22.7,131.1,21.4,131.1,19.8z M133.2,19.8c0,1,0.3,1.8,1,2.5s1.5,1,2.4,1c1,0,1.8-0.3,2.5-0.9s1-1.5,1-2.5
			c0-0.7-0.2-1.3-0.5-1.9c-0.4-0.5-0.8-0.9-1.3-1.2c-0.5-0.3-1.1-0.4-1.6-0.4c-1,0-1.8,0.3-2.4,0.9
			C133.5,17.9,133.2,18.7,133.2,19.8z"/>
		
			<linearGradient id="SVGID_16_" gradientUnits="userSpaceOnUse" x1="153.6" y1="8.5691" x2="153.6" y2="26.1499" gradientTransform="matrix(1 0 0 -1 0 36)">
			<stop  offset="0" style="stop-color:#2F4170"/>
			<stop  offset="0.1093" style="stop-color:#384F81"/>
			<stop  offset="0.2997" style="stop-color:#446399"/>
			<stop  offset="0.5024" style="stop-color:#4C71AA"/>
			<stop  offset="0.724" style="stop-color:#5179B4"/>
			<stop  offset="1" style="stop-color:#537CB7"/>
		</linearGradient>
		<path class="st26" d="M145.5,25V14.6h2v1.6c0.3-0.5,0.7-0.9,1.2-1.2c0.6-0.3,1.1-0.5,1.6-0.5c0.4,0,0.8,0,1.1,0.1
			c1.3,0.2,2.2,0.9,2.7,2c0.7-1.4,1.9-2.2,3.6-2.2c1.3,0,2.3,0.4,3,1.2c0.7,0.8,1,1.9,1,3.4v6h-2v-5.9c0-0.9-0.2-1.5-0.6-2
			c-0.4-0.5-1-0.7-1.8-0.7s-1.5,0.3-2,0.8c-0.5,0.6-0.8,1.3-0.8,2.2V25h-2v-5.9c0-0.9-0.2-1.5-0.6-2c-0.4-0.5-1-0.7-1.6-0.7
			c-0.8,0-1.5,0.3-2.1,0.8s-0.8,1.3-0.8,2.3V25H145.5z"/>
		
			<linearGradient id="SVGID_17_" gradientUnits="userSpaceOnUse" x1="166.2" y1="8.5691" x2="166.2" y2="26.15" gradientTransform="matrix(1 0 0 -1 0 36)">
			<stop  offset="0" style="stop-color:#2F4170"/>
			<stop  offset="0.1093" style="stop-color:#384F81"/>
			<stop  offset="0.2997" style="stop-color:#446399"/>
			<stop  offset="0.5024" style="stop-color:#4C71AA"/>
			<stop  offset="0.724" style="stop-color:#5179B4"/>
			<stop  offset="1" style="stop-color:#537CB7"/>
		</linearGradient>
		<path class="st27" d="M165.2,11.7c-0.3-0.3-0.4-0.6-0.4-0.9c0-0.4,0.1-0.7,0.4-0.9c0.3-0.3,0.6-0.4,1-0.4s0.7,0.1,1,0.4
			c0.3,0.3,0.4,0.6,0.4,0.9c0,0.4-0.1,0.7-0.4,0.9c-0.3,0.3-0.6,0.4-1,0.4C165.8,12,165.5,11.9,165.2,11.7z M165.2,25V14.6h2V25
			H165.2z"/>
		
			<linearGradient id="SVGID_18_" gradientUnits="userSpaceOnUse" x1="171.6" y1="8.5692" x2="171.6" y2="26.1498" gradientTransform="matrix(1 0 0 -1 0 36)">
			<stop  offset="0" style="stop-color:#2F4170"/>
			<stop  offset="0.1093" style="stop-color:#384F81"/>
			<stop  offset="0.2997" style="stop-color:#446399"/>
			<stop  offset="0.5024" style="stop-color:#4C71AA"/>
			<stop  offset="0.724" style="stop-color:#5179B4"/>
			<stop  offset="1" style="stop-color:#537CB7"/>
		</linearGradient>
		<path class="st28" d="M170.6,25V8.9h2V25H170.6z"/>
		
			<linearGradient id="SVGID_19_" gradientUnits="userSpaceOnUse" x1="180" y1="8.5692" x2="180" y2="26.1499" gradientTransform="matrix(1 0 0 -1 0 36)">
			<stop  offset="0" style="stop-color:#2F4170"/>
			<stop  offset="0.1093" style="stop-color:#384F81"/>
			<stop  offset="0.2997" style="stop-color:#446399"/>
			<stop  offset="0.5024" style="stop-color:#4C71AA"/>
			<stop  offset="0.724" style="stop-color:#5179B4"/>
			<stop  offset="1" style="stop-color:#537CB7"/>
		</linearGradient>
		<path class="st29" d="M174.7,14.6h2.2l3.1,7.6l3.1-7.6h2.2l-6.5,15.5h-2.1l2.2-5.4L174.7,14.6z"/>
	</g>
</g>
</svg>
